PathFileType	4	(X/Y/Z)	Patient4_TMGait_0pt7_02_right_42.trc.trc
DataRate	CameraRate	NumFrames	NumMarkers	Units	OrigDataRate	OrigDataStartFrame	OrigNumFrames
84.848484848485	84.848484848485	4	33	mm	84.848484848485	124	       141
Frame#	Time	Sacral			L.Shoulder			Chest			R.Shoulder			Neck			R.ASIS			L.ASIS			R.Thigh.Superior			R.Thigh.Lateral			R.Thigh.Inferior			R.Patella			L.Thigh.Superior			L.Thigh.Lateral			L.Thigh.Inferior			L.Patella			L.Shank.Superior			L.Shank.Lateral			L.Shank.Inferior			R.Shank.Superior			R.Shank.Lateral			R.Shank.Inferior			R.Heel			R.Midfoot.Superior			R.Midfoot.Lateral			R.Toe			L.Heel			L.Midfoot.Lateral			L.Midfoot.Superior			L.Toe			L.Elbow			L.Wrist			R.Elbow			R.Wrist			
		X1	Y1	Z1	X2	Y2	Z2	X3	Y3	Z3	X4	Y4	Z4	X5	Y5	Z5	X6	Y6	Z6	X7	Y7	Z7	X8	Y8	Z8	X9	Y9	Z9	X10	Y10	Z10	X11	Y11	Z11	X12	Y12	Z12	X13	Y13	Z13	X14	Y14	Z14	X15	Y15	Z15	X16	Y16	Z16	X17	Y17	Z17	X18	Y18	Z18	X19	Y19	Z19	X20	Y20	Z20	X21	Y21	Z21	X22	Y22	Z22	X23	Y23	Z23	X24	Y24	Z24	X25	Y25	Z25	X26	Y26	Z26	X27	Y27	Z27	X28	Y28	Z28	X29	Y29	Z29	X30	Y30	Z30	X31	Y31	Z31	X32	Y32	Z32	X33	Y33	Z33	

124	48.989642857143	703.983101606466	996.560594307574	456.634130542167	908.332523397407	1407.012008175513	265.890784165240	998.625441767078	1340.567940647325	436.571666992258	909.934766200329	1431.766234891263	599.532356875221	902.103063547520	1475.288397831836	416.178553135854	925.464918812767	922.625019635856	581.987772518314	922.779471265345	947.258791188659	305.092999729606	998.403982208751	752.730359751914	553.875028046578	950.344232659304	627.801726970144	620.691582105850	1041.828590494469	594.742958136568	542.321067743939	1073.892224174388	511.643281757396	555.652141925784	915.167682156852	720.548411814377	333.687356301578	791.785494993274	631.913691124309	272.864280882631	846.740418959245	535.189694843007	336.790181180970	827.709146371577	468.749568542919	346.602225335028	791.697496812954	404.511633136944	339.314508235389	684.141228637216	304.728910539563	289.560190972974	717.752459578644	188.084840634041	363.394712573766	1058.547019636818	420.788720007672	564.281076439292	1003.406960101792	305.259188365735	621.675554912978	1073.571747274921	220.924147391724	569.702430702961	979.038032110173	40.231398911273	538.232290426865	1143.490580926855	108.268472111247	576.492657391758	1062.915642598012	38.196614919283	611.497934892891	1267.072348111258	67.977425009715	603.013131507823	574.371254734943	39.762942172732	407.228199052778	650.922800393100	35.035585559815	329.383057748477	733.834832322777	95.225438551058	357.852175676445	862.665825186117	42.016990274861	335.033313930379	977.285535915240	1089.548892084102	114.997935673816	1220.745231435749	1119.945984779591	181.839729100046	725.725498015739	1157.813695532578	735.018751661181	646.952629126977	910.029160391542	766.318246969178	
125	49.001428571429	705.650661338368	994.755251417809	458.777138393852	908.059243690936	1405.999449588277	268.182757780176	999.103667571771	1339.915519469981	438.657873349871	910.059271893291	1430.299736392425	601.931860780395	902.169708743775	1474.174136090360	418.676919511073	927.467018440026	921.348735733369	584.093264120577	924.569068701723	945.707514545401	307.400150319832	1000.563578260444	750.470204541740	556.175249677434	950.102160770946	625.546412516643	621.241018671289	1042.117490184624	592.673364289066	543.478359075969	1072.621830253894	509.034150265131	555.608111038362	916.634488558612	718.941220863828	335.872485976350	793.012429960112	630.699160413332	274.609980296000	847.298397277096	533.532668792223	338.685280177644	827.708802113171	466.425059047776	348.333208101668	790.209897294120	402.736435283679	340.761551673250	680.847437199212	305.188618295915	290.461736620309	711.755801520498	187.670953642246	363.848991038981	1057.022616369520	417.963276314416	563.934663484007	1000.981245774456	302.747190329739	620.895338919576	1069.984747024536	218.066433501609	568.464827357948	972.817996874794	39.952659218978	536.723617191374	1138.396171509075	104.943705215053	575.133658793517	1056.341437567494	37.189146276557	610.342641625881	1261.222173543662	62.642368113182	601.869677717220	566.126337430710	41.001515673779	406.891113599313	642.774668172626	35.377560835034	329.293248418358	726.033725870373	95.292365629525	357.722509577424	854.579293887216	41.399633567251	335.054139252419	974.188553065588	1086.983335096492	117.786257161387	1216.261569105697	1122.220290913013	186.757005318340	728.086722339496	1154.232751268236	736.632974753803	650.487783435766	905.927221929214	767.334127180378	
126	49.013214285714	707.231862528627	993.427706641281	460.972802199000	908.098621834235	1405.346431206841	270.517890013290	999.755378444708	1339.566983740841	440.837776457951	910.336671068916	1429.172691653367	604.390480020838	902.550303081782	1473.459495069598	421.232663810757	929.334862639511	920.638232482305	586.407261807181	926.207817380561	944.466148112578	309.893330962912	1002.964593751899	749.145720828993	558.444949366854	950.514363182631	624.170728565023	621.849823960634	1042.900663467258	591.496130003664	544.559749303650	1071.924429886754	507.055411185281	555.551489908343	918.322735301097	717.704899225871	338.124395376698	794.598918732961	629.630420527475	276.551418862884	848.602924792944	532.057208735605	340.566687960190	828.602293700800	464.136250548501	349.930367116348	789.344622340897	401.081414317231	342.156349228265	677.955927400745	306.044398223753	291.462347766673	706.086982072818	187.549666646210	364.197870358646	1055.722030402358	415.736338641441	563.587756170886	998.659450214639	301.110239643888	620.604230265019	1065.752297517910	215.730956534417	567.385687005945	965.202268367440	40.121318665391	535.748086598287	1131.983652062531	102.090451480845	574.084623853419	1048.489345803722	36.597996521990	609.609280098850	1254.093153365014	57.815340245998	600.904678268776	557.964451283168	42.853481535956	406.498994359437	634.678672329401	35.950555137694	329.187446411765	718.465330208292	95.436157748647	357.454115468679	846.514995237276	40.750806672273	335.063058405962	970.498993068891	1084.406496349692	120.866714845642	1211.542088015413	1122.988438786570	191.573316873161	731.551689626813	1150.102765063150	738.159925008009	655.786123070983	901.033870030079	768.077178351912	
127	49.025000000000	708.725822346055	992.633502191667	463.218628405907	908.491793445442	1405.107105644303	272.882740776860	1000.576904312047	1339.548917409913	443.105156151304	910.782266404972	1428.459917144932	606.881095307491	903.253401610263	1473.187527171731	423.813778746826	931.048874009826	920.536476026446	588.924570078777	927.667574169548	943.628257001129	312.537960891416	1005.462468869128	748.710737760800	560.618744864388	951.486140693027	623.655368769397	622.594556600279	1043.973720651528	591.090916618430	545.569151367185	1071.604842074642	505.672952779270	555.580264816524	920.179294056562	716.901321132046	340.422155057594	796.524232906619	628.749861186765	278.659608764373	850.687773151905	530.814107233192	342.377313141401	830.445941003037	461.936252353965	351.282486560336	789.143343739345	399.603639784325	343.419884855177	675.496734970280	307.372304874346	292.544439805369	700.822760429337	187.793600356948	364.399776055920	1054.534627056855	414.098498833961	563.328803962388	996.439745307283	300.254999400779	620.825313044877	1061.052169672552	213.932670526649	566.515300373098	956.721824321843	40.541398396552	535.255581847772	1124.643006616180	99.861221650140	573.372827730912	1039.878301463757	36.332868451277	609.259952925831	1246.133637354962	53.818108797012	600.177448432865	549.945904544001	45.452164478002	406.064833368753	626.658781700387	36.836066793245	329.068826442154	711.195256721936	95.669813217667	357.026982259128	838.463404229550	40.101025596713	335.063765823099	966.191006401407	1081.925143947155	124.257647968756	1206.642841727351	1122.238503556496	196.289227259636	736.079653783297	1145.619257214933	739.608363149258	662.890297319099	895.532672529380	768.555490535886	
